<?xml version="1.0" standalone="no"?>
<!DOCTYPE svg PUBLIC "-//W3C//DTD SVG 20010904//EN"
 "http://www.w3.org/TR/2001/REC-SVG-20010904/DTD/svg10.dtd">
<svg version="1.0" xmlns="http://www.w3.org/2000/svg"
 width="512.000000pt" height="512.000000pt" viewBox="0 0 512.000000 512.000000"
 preserveAspectRatio="xMidYMid meet">
<metadata>
Created by potrace 1.14, written by Peter Selinger 2001-2017
</metadata>
<g transform="translate(0.000000,512.000000) scale(0.100000,-0.100000)"
fill="#000000" stroke="none">
<path d="M470 5106 c-72 -16 -193 -75 -250 -123 -101 -83 -178 -210 -205 -338
-21 -102 -21 -4075 1 -4175 47 -218 231 -403 454 -455 57 -13 322 -14 2120
-12 l2055 2 62 23 c186 70 313 198 381 384 l27 73 0 2080 0 2080 -22 59 c-80
209 -244 358 -443 400 -89 20 -4093 21 -4180 2z"/>
</g>
</svg>
